<?xml version="1.0" encoding="utf-8"?>
<!-- Generator: Adobe Illustrator 23.0.1, SVG Export Plug-In . SVG Version: 6.00 Build 0)  -->
<svg version="1.1" id="Layer_1" xmlns="http://www.w3.org/2000/svg" xmlns:xlink="http://www.w3.org/1999/xlink" width="120px" height="120px"
	 viewBox="0 0 36 36" style="enable-background:new 0 0 36 36;" xml:space="preserve">
<style type="text/css">
	.st0{fill:#FFFFFF;}
</style>
<g>
	<g>
		<path class="st0" d="M4.2,15.62l1.97,3.16h0.01v-3.16h0.97v4.72H6.11l-1.96-3.16H4.14v3.16H3.17v-4.72
			C3.17,15.62,4.2,15.62,4.2,15.62z"/>
		<path class="st0" d="M11.59,15.62v0.87H9.1v1.01h2.29v0.81H9.1v1.16h2.54v0.87H8.06v-4.72C8.06,15.62,11.59,15.62,11.59,15.62z"/>
		<path class="st0" d="M11.98,15.62h1.2l0.92,1.51l0.96-1.51h1.14l-1.51,2.25l1.64,2.46H15.1l-1.03-1.63l-1.05,1.63h-1.16l1.64-2.47
			L11.98,15.62z"/>
		<path class="st0" d="M16.38,16.49v-0.87h3.86v0.87h-1.41v3.84h-1.04v-3.84H16.38z"/>
	</g>
	<polygon points="32.83,18 21.31,10.16 21.31,25.84 	"/>
</g>
</svg>
