<?xml version="1.0" encoding="utf-8"?>
<!-- Generator: Adobe Illustrator 23.0.1, SVG Export Plug-In . SVG Version: 6.00 Build 0)  -->
<svg version="1.1" id="Layer_1" xmlns="http://www.w3.org/2000/svg" xmlns:xlink="http://www.w3.org/1999/xlink" x="0px" y="0px"
	 viewBox="0 0 36 36" style="enable-background:new 0 0 36 36;" xml:space="preserve">
<g>
	<g>
		<path d="M4.2,15.62l1.97,3.16h0.01v-3.16h0.97v4.72H6.11l-1.96-3.16H4.14v3.16H3.17v-4.72H4.2z"/>
		<path d="M11.59,15.62v0.87H9.1v1.01h2.29v0.81H9.1v1.16h2.54v0.87H8.06v-4.72H11.59z"/>
		<path d="M11.98,15.62h1.2l0.92,1.51l0.96-1.51h1.14l-1.51,2.25l1.64,2.46H15.1l-1.03-1.63l-1.05,1.63h-1.16l1.64-2.47L11.98,15.62
			z"/>
		<path d="M16.38,16.49v-0.87h3.86v0.87h-1.41v3.84h-1.04v-3.84H16.38z"/>
	</g>
	<polygon points="32.83,18 21.31,10.16 21.31,25.84 	"/>
</g>
<g>
	<g>
		<path d="M73.77,15.66c0.3,0,0.55,0.04,0.75,0.13s0.38,0.2,0.51,0.34c0.13,0.14,0.22,0.3,0.28,0.48c0.06,0.18,0.09,0.37,0.09,0.56
			c0,0.19-0.03,0.38-0.09,0.56c-0.06,0.18-0.15,0.34-0.28,0.49c-0.13,0.14-0.3,0.25-0.51,0.34c-0.21,0.09-0.46,0.13-0.75,0.13h-1.09
			v1.69h-1.04v-4.72H73.77z M73.48,17.88c0.12,0,0.23-0.01,0.34-0.03c0.11-0.02,0.21-0.05,0.29-0.1c0.08-0.05,0.15-0.12,0.2-0.21
			c0.05-0.09,0.08-0.21,0.08-0.36c0-0.15-0.03-0.27-0.08-0.36c-0.05-0.09-0.12-0.16-0.2-0.21c-0.08-0.05-0.18-0.08-0.29-0.1
			c-0.11-0.02-0.22-0.03-0.34-0.03h-0.81v1.41H73.48z"/>
		<path d="M78.59,15.66c0.21,0,0.4,0.03,0.57,0.1c0.17,0.07,0.31,0.16,0.44,0.28c0.12,0.12,0.21,0.26,0.28,0.41
			c0.06,0.16,0.1,0.32,0.1,0.51c0,0.28-0.06,0.52-0.18,0.72c-0.12,0.2-0.31,0.36-0.57,0.46v0.01c0.13,0.04,0.23,0.09,0.32,0.16
			c0.08,0.07,0.15,0.16,0.2,0.26c0.05,0.1,0.09,0.21,0.12,0.33s0.04,0.24,0.05,0.36c0,0.07,0.01,0.16,0.01,0.26
			c0,0.1,0.01,0.2,0.02,0.31c0.01,0.11,0.03,0.21,0.05,0.3c0.02,0.09,0.06,0.18,0.11,0.24h-1.04c-0.06-0.15-0.09-0.33-0.11-0.54
			c-0.01-0.21-0.03-0.41-0.06-0.59c-0.04-0.25-0.11-0.43-0.22-0.54c-0.11-0.11-0.3-0.17-0.56-0.17h-1.04v1.84h-1.04v-4.72H78.59z
			 M78.22,17.8c0.24,0,0.42-0.05,0.54-0.16c0.12-0.11,0.18-0.28,0.18-0.52c0-0.23-0.06-0.4-0.18-0.5c-0.12-0.1-0.3-0.16-0.54-0.16
			h-1.14v1.33H78.22z"/>
		<path d="M84.34,15.66v0.87h-2.49v1.01h2.29v0.81h-2.29v1.16h2.54v0.87h-3.58v-4.72H84.34z"/>
		<path d="M86.12,20.38l-1.53-4.72h1.06l1.05,3.32h0.01l1.06-3.32h1.07l-1.57,4.72H86.12z"/>
	</g>
	<polygon points="59.15,18 70.67,25.84 70.67,10.16 	"/>
</g>
</svg>
