<?xml version="1.0" encoding="utf-8"?>
<!-- Generator: Adobe Illustrator 23.0.1, SVG Export Plug-In . SVG Version: 6.00 Build 0)  -->
<svg version="1.1" id="Layer_1" xmlns="http://www.w3.org/2000/svg" xmlns:xlink="http://www.w3.org/1999/xlink" x="0px" y="0px" width="100px" height="100px"
	 viewBox="0 0 120 120" style="enable-background:new 0 0 120 120;" xml:space="preserve">
<style type="text/css">
	.st0{fill:#FF0000;}
</style>
<g>
	<title>PREV4</title>
	<g>
		<g>
			<g>
				<polygon class="st0" points="7.3,56.5 114.4,56.5 114.4,59.5 11.4,59.5 22.6,71.6 20.4,73.6 5.9,58 				"/>
				<path class="st0" d="M7.1,56h107.8v4H12.6l10.8,11.6l-2.9,2.7L5.3,58L7.1,56z M113.9,57H7.5l-0.9,1l13.8,14.9l1.5-1.4L10.3,59
					h103.7V57z"/>
			</g>
		</g>
		<g>
			<g>
				<polygon class="st0" points="20.4,42.4 22.6,44.4 11.4,56.5 114.4,56.5 114.4,59.5 7.3,59.5 5.9,58 				"/>
				<path class="st0" d="M20.4,41.7l2.9,2.7L12.6,56h102.4v4H7.1l-1.9-2L20.4,41.7z M21.9,44.4l-1.5-1.4L6.6,58l0.9,1h106.4v-2H10.3
					L21.9,44.4z"/>
			</g>
		</g>
	</g>
</g>
</svg>
